<svg xmlns="http://www.w3.org/2000/svg" width="305.87" height="250.18" fill="none" viewBox="152.51 180.37 305.87 250.18"><path fill="#fff" d="m152.517 430 .483.5 2 .049 77-.06 4-.221 7-.946 3-.766 2-.293 5-1.662 2-.451 9-3.994 5-2.888 6-4.091 5-4.051 3-2.845 3-3.19 2.587-3.091 3.699-5 3.714-6.018 3.417-6.982 2.912-8 .337-2 .709-2 1.019-5 .773-6 .236-5-.031-6-1.003-9-.541-2-.456-3-.708-2-.425-2-.498-1-.476-2-1.948-5-1.832-4-.744-1-.31-1-1.078-2-3.157-5-2.86-4-3.398-4-2.842-3-5.536-5-5.56-4.213-7-4.22-1-.321-1-.713-2-.949-4-1.699-2-.609-1-.502-2-.478-1-.474-4-1.174-3-.445-2-.55-7-.856-8-.273-3-.292-1-.564-2-.501-2-1.006-3-1.869-2-1.818-2.019-2.474-1.306-2-.336-1-.632-1-.951-3-.331-2-.242-3 .25-4 .452-2 1.045-3 2.07-3.475 1-1.303 2.265-2.222 1.735-1.391 3-1.77 4-1.354 4-.587 4-.054 151 .023 5 .925 3 1.1 4 2.611 3 2.997 2.392 3.5.828 2 1.208 4 .19 4-.246 4-1.334 4-.917 2-1.121 1.705-3 3.48-3 2.247-4 1.985-3 .901-3 .253-23 .104-6 .953-4 1.047-7 2.897-4 2.267-3 2-1.391 1.161-3.609 3.334-4.193 4.666-3.217 5-1.59 3.028-.733 1.972-.601 1-1.083 3-.128 1-.907 3-.256 2-.515 2-.305 6 .342 6 .854 5 .449 1 .43 2 2.332 6 2.821 5 2.841 4 27.215 35 3.32 4 3.924 5.283L374.352 413l1.333 2 2.584 3 3.934 5 1.34 2 3.943 5 .514.425 69 .098.931-.523-9.334-12-1.33-2-6.506-8-1.369-2-43.754-56-4.466-6-7.272-9-.481-1 .581-.684 10-.978 3-.68 2-.243 8-2.294 3-1.334 2-.66 6-2.838 6.969-4.289 5.031-3.766 2.627-2.234 4.165-4 3.619-4 3.857-5 4.012-6 .357-1 .669-1 1.971-4 2.12-5 1.26-4 .487-1 1.066-4 .461-3 .42-1 1.041-8 .242-5-.138-6-1.009-9-.613-2-.297-2-1.033-4-.776-2-.127-1-2.022-5-2.837-6-2.262-4-4.062-6-2.198-2.887-1-.872-1.792-2.241-5.208-5.252-1-.594-3-2.589-5-3.773-9-5.068-7-2.919-7-2.18-4-.879-4-.548-2-.465-8-.356-152-.009-9 .21-8 1.113-8 2.015-1 .517-2 .547-5 2.019-6 2.903-8 5.14-5 3.991-4 3.674-4.168 4.503-3.173 4-4.075 6-2.833 5-.32 1-.727 1-3.181 8-.176 1-.75 2-.859 3-.507 3-.57 2-.468 4-.276 1-.384 6 .092 9 1.092 8 .916 4 .65 2 .378 2 .552 1 .479 2 .829 2 .208 1 4.872 10 .799 1 2.422 4 4.178 5.586 4.004 4.414 3.053 3 6.04 5 5.918 4 3.985 2.298 4 2.024 5 2.073 5 1.772 4 1 4 .718 1 .354 8 .905 7 .247 3 .351 3 1.002 1 .601 1 .309 3 2.076 2.429 2.27 1.591 2 1.367 2 .274 1 .595 1 1.196 4 .209 5-.329 4-.482 1-.542 2-.978 2-1.92 3-1.836 2-2.574 2.252-2 1.206-2 .925-3 .994-3 .397-4 .105-71 .045-2-.126-1 .389-.495.813Z" shape-rendering="geometricPrecision"/></svg>